<?xml version="1.0" encoding="utf-8"?>
<!-- Generator: Adobe Illustrator 24.0.2, SVG Export Plug-In . SVG Version: 6.00 Build 0)  -->
<svg version="1.1" id="Capa_1" xmlns="http://www.w3.org/2000/svg" xmlns:xlink="http://www.w3.org/1999/xlink" x="0px" y="0px"
	 viewBox="0 0 512 512" style="enable-background:new 0 0 512 512;" xml:space="preserve">
<style type="text/css">
	.st0{fill:#72191C;}
</style>
<g transform="translate(0.000000,512.000000) scale(0.100000,-0.100000)">
	<path class="st0" d="M2370,5110c-616-48-1178-307-1615-745c-397-396-642-885-726-1445c-31-205-31-515,0-720
		c84-560,329-1049,726-1445c396-397,885-642,1445-726c205-31,515-31,720,0c560,84,1049,329,1445,726c397,396,643,886,726,1445
		c25,168,30,478,10,645c-50,420-200,824-433,1162c-52,75-92,103-148,103c-59,0-115-43-130-101c-14-50,2-92,66-189
		c349-520,465-1175,318-1790c-76-320-237-645-447-905c-148-182-388-392-590-514c-106-64-284-150-397-191c-116-43-321-95-460-116
		c-159-25-481-25-640,0c-491,76-916,286-1264,625c-201,197-337,383-457,626c-83,169-120,269-164,440c-54,210-69,333-69,565
		s15,355,69,565c44,171,81,271,164,440c120,243,256,429,457,626c291,283,629,474,1019,574c208,53,333,69,560,69
		c369,0,660-66,995-225c139-65,183-72,237-39c61,37,82,124,44,187c-24,38-76,70-225,136c-217,97-480,171-716,201
		C2740,5113,2502,5120,2370,5110z"/>
	<path class="st0" d="M1995,3954c-365-27-788-103-913-165c-247-121-301-471-104-668c97-97,228-131,370-98c399,96,746,130,1100,109
		c444-27,777-113,1087-282c235-128,250-134,339-134c224,1,388,175,387,409c0,169-66,277-232,380c-359,223-812,373-1304,431
		C2612,3950,2103,3962,1995,3954z M2705,3656c252-33,443-75,642-142c225-75,533-229,601-300c60-63,41-179-34-210
		c-43-18-54-15-150,42c-311,184-675,301-1084,350c-101,12-225,17-410,18c-340,1-554-22-861-89c-86-19-165-35-177-35s-36,13-53,28
		c-58,52-50,175,14,216c54,35,491,114,752,136C2098,3682,2571,3674,2705,3656z"/>
	<path class="st0" d="M1945,2983c-202-17-577-88-661-123c-63-27-147-110-180-178c-25-51-28-68-29-162c0-93,3-111,26-160
		c39-80,91-135,163-170c87-43,155-48,271-21c50,12,101,24,115,27c196,45,542,70,755,55c369-25,630-97,913-252c142-78,189-93,267-86
		c125,10,232,82,287,195c31,62,33,73,33,172c0,94-3,111-27,160c-37,75-96,132-196,191c-317,188-650,294-1072,344
		C2496,2989,2067,2994,1945,2983z M2587,2695c362-42,652-134,934-296c49-28,94-59,99-69c27-51-6-140-52-140c-11,0-47,16-79,36
		c-98,59-282,142-406,184c-460,152-1008,168-1560,44c-119-26-141-24-163,16c-16,29-12,86,8,110c23,28,160,62,382,95
		c218,32,210,31,480,33C2381,2709,2508,2705,2587,2695z"/>
	<path class="st0" d="M1935,2119c-224-21-489-74-572-115c-236-115-237-487-1-603c87-43,143-48,253-22c173,42,327,62,520,68
		c204,6,329-3,499-38c186-38,275-73,551-218c43-22,62-26,135-26c72,0,93,4,135,27c62,32,129,103,158,166c17,37,21,67,22,137
		c0,82-3,96-33,157c-39,79-78,115-199,183c-355,201-750,297-1203,294C2104,2128,1985,2124,1935,2119z M2485,1835
		c278-33,474-89,689-196c138-68,180-99,184-131c4-33-13-68-33-68c-9,0-54,22-103,50c-155,87-383,168-577,204c-312,57-738,43-1065-35
		l-85-20l-17,22c-22,26-23,48-3,76c17,24,116,51,292,78C1999,1852,2284,1860,2485,1835z"/>
</g>
</svg>
