<?xml version="1.0" encoding="utf-8"?>
<!-- Generator: Adobe Illustrator 24.0.2, SVG Export Plug-In . SVG Version: 6.00 Build 0)  -->
<svg version="1.1" id="Capa_1" xmlns="http://www.w3.org/2000/svg" xmlns:xlink="http://www.w3.org/1999/xlink" x="0px" y="0px"
	 viewBox="0 0 236 236" style="enable-background:new 0 0 236 236;" xml:space="preserve">
<style type="text/css">
	.st0{fill:#FFFFFF;stroke:#FFFFFF;stroke-width:2;stroke-miterlimit:10;}
</style>
<g transform="translate(0.000000,236.000000) scale(0.100000,-0.100000)">
	<path class="st0" d="M1955,1564c-76-20-114-24-243-24h-154l9-32c11-47,4-187-12-219c-34-64-138-129-225-138l-55-6l-7-160
		c-7-169-1-203,30-155c29,46,139,146,184,167c58,28,126,37,172,25c32-9,38-8,43,6c21,61,59,134,82,156c14,14,44,29,66,34l40,8l8,78
		c12,122,52,195,134,242c23,14,40,30,37,35C2057,1592,2063,1593,1955,1564z M1940,1524c0-3-13-24-29-47c-30-44-51-121-51-186
		c0-36-2-39-33-45c-18-3-47-21-64-39c-30-31-83-124-83-145c0-7-17-9-48-5c-91,10-206-40-289-128c-21-21-40-39-43-39s-3,48-2,107
		c4,111,8,123,48,123c35,0,161,68,190,103c46,54,65,110,68,200l3,82l151,5c83,3,154,9,158,13C1925,1531,1940,1532,1940,1524z"/>
	<path class="st0" d="M1718,1373c17-2,47-2,65,0c17,2,3,4-33,4S1700,1375,1718,1373z"/>
	<path class="st0" d="M1580,1145c13-14,26-25,28-25c3,0-5,11-18,25s-26,25-28,25C1559,1170,1567,1159,1580,1145z"/>
	<path class="st0" d="M425,1520c-4-13,3-37,19-65c24-44,24-46,8-75s-16-31,7-75c13-25,28-45,32-45c5,0,9-15,9-33c0-24,8-41,30-62
		c25-24,29-34,24-62c-6-30-3-34,39-60c25-16,47-37,49-48c2-13,22-29,55-45c32-15,53-32,53-41c0-20,16-34,49-44c14-4,32-17,42-28
		c13-17,27-21,72-20c52,1,108,21,122,43c3,5-13,3-36-5c-43-15-140-20-153-8c-3,4,17,13,46,20c29,8,60,21,68,29c13,14,12,14-13,5
		c-43-16-174-14-180,3c-4,10,11,15,64,19c113,10,119,26,9,24c-76-1-103,3-134,18c-65,33-56,42,36,39l83-3l-64,10
		c-118,18-214,70-185,99c7,7,21,6,47-5c41-17,81-20,72-5c-3,6-13,10-22,10c-44,0-178,98-160,116c3,4,29-3,57-15s57-20,63-18
		c7,3-1,10-18,16c-79,30-155,101-155,146c0,33,29,33,60,0c13-14,25-23,27-22c2,2-14,22-35,45c-69,75-96,170-40,141c13-6,37-24,53-39
		c47-45,172-118,257-150c60-23,273-70,321-70c4,0,23-22,43-50c20-27,42-50,50-50c16,0-46,86-79,109c-11,8-64,21-116,28
		c-166,23-317,86-456,190C470,1544,435,1553,425,1520z"/>
</g>
</svg>
